<mxfile host="Electron" agent="Mozilla/5.0 (Macintosh; Intel Mac OS X 10_15_7) AppleWebKit/537.36 (KHTML, like Gecko) draw.io/24.7.17 Chrome/128.0.6613.36 Electron/32.0.1 Safari/537.36" version="24.7.17">
  <diagram name="Sayfa -1" id="jDDf7yI5Ph4p9Fsg3NfB">
    <mxGraphModel dx="1862" dy="756" grid="1" gridSize="10" guides="1" tooltips="1" connect="1" arrows="1" fold="1" page="1" pageScale="1" pageWidth="827" pageHeight="1169" math="0" shadow="0">
      <root>
        <mxCell id="0" />
        <mxCell id="1" parent="0" />
        <mxCell id="Z0DfydjJGIAEFnmEN4nz-1" value=":Player" style="rounded=0;whiteSpace=wrap;html=1;" parent="1" vertex="1">
          <mxGeometry x="80" y="190" width="120" height="60" as="geometry" />
        </mxCell>
        <mxCell id="Z0DfydjJGIAEFnmEN4nz-2" value=":Inventory" style="rounded=0;whiteSpace=wrap;html=1;" parent="1" vertex="1">
          <mxGeometry x="230" y="190" width="120" height="60" as="geometry" />
        </mxCell>
        <mxCell id="Z0DfydjJGIAEFnmEN4nz-3" value=":Game" style="rounded=0;whiteSpace=wrap;html=1;" parent="1" vertex="1">
          <mxGeometry x="380" y="190" width="120" height="60" as="geometry" />
        </mxCell>
        <mxCell id="Z0DfydjJGIAEFnmEN4nz-5" value="" style="endArrow=none;dashed=1;html=1;rounded=0;entryX=0.5;entryY=1;entryDx=0;entryDy=0;" parent="1" source="Z0DfydjJGIAEFnmEN4nz-41" target="Z0DfydjJGIAEFnmEN4nz-1" edge="1">
          <mxGeometry width="50" height="50" relative="1" as="geometry">
            <mxPoint x="140" y="730" as="sourcePoint" />
            <mxPoint x="440" y="360" as="targetPoint" />
          </mxGeometry>
        </mxCell>
        <mxCell id="Z0DfydjJGIAEFnmEN4nz-6" value="" style="endArrow=none;dashed=1;html=1;rounded=0;entryX=0.5;entryY=1;entryDx=0;entryDy=0;" parent="1" edge="1">
          <mxGeometry width="50" height="50" relative="1" as="geometry">
            <mxPoint x="289.92857142857133" y="340" as="sourcePoint" />
            <mxPoint x="289.5" y="250" as="targetPoint" />
          </mxGeometry>
        </mxCell>
        <mxCell id="Z0DfydjJGIAEFnmEN4nz-7" value="" style="endArrow=none;dashed=1;html=1;rounded=0;entryX=0.5;entryY=1;entryDx=0;entryDy=0;" parent="1" source="Z0DfydjJGIAEFnmEN4nz-45" edge="1">
          <mxGeometry width="50" height="50" relative="1" as="geometry">
            <mxPoint x="439.5" y="720" as="sourcePoint" />
            <mxPoint x="439.5" y="240" as="targetPoint" />
          </mxGeometry>
        </mxCell>
        <mxCell id="Z0DfydjJGIAEFnmEN4nz-9" value="" style="endArrow=classic;html=1;rounded=0;entryX=1.006;entryY=1.024;entryDx=0;entryDy=0;entryPerimeter=0;" parent="1" edge="1" target="Z0DfydjJGIAEFnmEN4nz-13">
          <mxGeometry width="50" height="50" relative="1" as="geometry">
            <mxPoint x="140" y="280" as="sourcePoint" />
            <mxPoint x="440" y="280" as="targetPoint" />
          </mxGeometry>
        </mxCell>
        <mxCell id="Z0DfydjJGIAEFnmEN4nz-10" value="" style="endArrow=classic;html=1;rounded=0;" parent="1" edge="1">
          <mxGeometry width="50" height="50" relative="1" as="geometry">
            <mxPoint x="296" y="305" as="sourcePoint" />
            <mxPoint x="295" y="334.9999999999999" as="targetPoint" />
            <Array as="points">
              <mxPoint x="360" y="305" />
              <mxPoint x="360" y="335" />
              <mxPoint x="330" y="335" />
            </Array>
          </mxGeometry>
        </mxCell>
        <mxCell id="Z0DfydjJGIAEFnmEN4nz-11" value="" style="endArrow=classic;html=1;rounded=0;" parent="1" edge="1">
          <mxGeometry width="50" height="50" relative="1" as="geometry">
            <mxPoint x="282.5" y="367.2899999999999" as="sourcePoint" />
            <mxPoint x="137.5" y="367.29" as="targetPoint" />
          </mxGeometry>
        </mxCell>
        <mxCell id="Z0DfydjJGIAEFnmEN4nz-12" value="" style="endArrow=classic;html=1;rounded=0;entryX=0.475;entryY=-0.05;entryDx=0;entryDy=0;entryPerimeter=0;" parent="1" edge="1" source="Z0DfydjJGIAEFnmEN4nz-43">
          <mxGeometry width="50" height="50" relative="1" as="geometry">
            <mxPoint x="440" y="400" as="sourcePoint" />
            <mxPoint x="437.75" y="418.4999999999999" as="targetPoint" />
          </mxGeometry>
        </mxCell>
        <mxCell id="Z0DfydjJGIAEFnmEN4nz-13" value="listEnchantments():" style="text;html=1;align=center;verticalAlign=middle;resizable=0;points=[];autosize=1;strokeColor=none;fillColor=none;" parent="1" vertex="1">
          <mxGeometry x="155" y="250" width="130" height="30" as="geometry" />
        </mxCell>
        <mxCell id="Z0DfydjJGIAEFnmEN4nz-18" value="" style="endArrow=none;dashed=1;html=1;rounded=0;entryX=0.5;entryY=1;entryDx=0;entryDy=0;" parent="1" edge="1">
          <mxGeometry width="50" height="50" relative="1" as="geometry">
            <mxPoint x="289.5" y="730" as="sourcePoint" />
            <mxPoint x="290" y="370" as="targetPoint" />
          </mxGeometry>
        </mxCell>
        <mxCell id="Z0DfydjJGIAEFnmEN4nz-27" value="" style="endArrow=none;dashed=1;html=1;dashPattern=1 3;strokeWidth=2;rounded=0;exitX=0.057;exitY=1.049;exitDx=0;exitDy=0;exitPerimeter=0;entryX=0.997;entryY=0.823;entryDx=0;entryDy=0;entryPerimeter=0;" parent="1" edge="1" source="Z0DfydjJGIAEFnmEN4nz-28">
          <mxGeometry width="50" height="50" relative="1" as="geometry">
            <mxPoint x="74.00000000000003" y="428" as="sourcePoint" />
            <mxPoint x="754" y="428" as="targetPoint" />
          </mxGeometry>
        </mxCell>
        <mxCell id="Z0DfydjJGIAEFnmEN4nz-33" value="" style="endArrow=classic;html=1;rounded=0;" parent="1" edge="1">
          <mxGeometry width="50" height="50" relative="1" as="geometry">
            <mxPoint x="445" y="570" as="sourcePoint" />
            <mxPoint x="145" y="570" as="targetPoint" />
          </mxGeometry>
        </mxCell>
        <mxCell id="Z0DfydjJGIAEFnmEN4nz-42" value="" style="endArrow=none;dashed=1;html=1;rounded=0;entryX=0.5;entryY=1;entryDx=0;entryDy=0;" parent="1" target="Z0DfydjJGIAEFnmEN4nz-41" edge="1">
          <mxGeometry width="50" height="50" relative="1" as="geometry">
            <mxPoint x="140" y="730" as="sourcePoint" />
            <mxPoint x="140" y="250" as="targetPoint" />
          </mxGeometry>
        </mxCell>
        <mxCell id="Z0DfydjJGIAEFnmEN4nz-41" value="" style="html=1;points=[[0,0,0,0,5],[0,1,0,0,-5],[1,0,0,0,5],[1,1,0,0,-5]];perimeter=orthogonalPerimeter;outlineConnect=0;targetShapes=umlLifeline;portConstraint=eastwest;newEdgeStyle={&quot;curved&quot;:0,&quot;rounded&quot;:0};" parent="1" vertex="1">
          <mxGeometry x="135" y="280" width="10" height="390" as="geometry" />
        </mxCell>
        <mxCell id="Z0DfydjJGIAEFnmEN4nz-43" value="" style="html=1;points=[[0,0,0,0,5],[0,1,0,0,-5],[1,0,0,0,5],[1,1,0,0,-5]];perimeter=orthogonalPerimeter;outlineConnect=0;targetShapes=umlLifeline;portConstraint=eastwest;newEdgeStyle={&quot;curved&quot;:0,&quot;rounded&quot;:0};" parent="1" vertex="1">
          <mxGeometry x="285" y="280" width="10" height="390" as="geometry" />
        </mxCell>
        <mxCell id="Z0DfydjJGIAEFnmEN4nz-46" value="" style="endArrow=none;dashed=1;html=1;rounded=0;entryX=0.5;entryY=1;entryDx=0;entryDy=0;" parent="1" target="Z0DfydjJGIAEFnmEN4nz-45" edge="1">
          <mxGeometry width="50" height="50" relative="1" as="geometry">
            <mxPoint x="440" y="700" as="sourcePoint" />
            <mxPoint x="439.5" y="240" as="targetPoint" />
          </mxGeometry>
        </mxCell>
        <mxCell id="Z0DfydjJGIAEFnmEN4nz-45" value="" style="html=1;points=[[0,0,0,0,5],[0,1,0,0,-5],[1,0,0,0,5],[1,1,0,0,-5]];perimeter=orthogonalPerimeter;outlineConnect=0;targetShapes=umlLifeline;portConstraint=eastwest;newEdgeStyle={&quot;curved&quot;:0,&quot;rounded&quot;:0};" parent="1" vertex="1">
          <mxGeometry x="435" y="280" width="10" height="300" as="geometry" />
        </mxCell>
        <mxCell id="Z0DfydjJGIAEFnmEN4nz-34" value="isAvailableEnchantments()" style="text;html=1;align=center;verticalAlign=middle;resizable=0;points=[];autosize=1;strokeColor=none;fillColor=none;" parent="1" vertex="1">
          <mxGeometry x="190" y="540" width="170" height="30" as="geometry" />
        </mxCell>
        <mxCell id="Z0DfydjJGIAEFnmEN4nz-28" value="&lt;font style=&quot;font-size: 10px;&quot;&gt;[enchantmentFound() == True)]&lt;/font&gt;" style="text;html=1;align=center;verticalAlign=middle;resizable=0;points=[];autosize=1;strokeColor=none;fillColor=none;" parent="1" vertex="1">
          <mxGeometry x="-20" y="398" width="160" height="30" as="geometry" />
        </mxCell>
        <mxCell id="Z0DfydjJGIAEFnmEN4nz-16" value="displayObject:" style="text;html=1;align=center;verticalAlign=middle;resizable=0;points=[];autosize=1;strokeColor=none;fillColor=none;" parent="1" vertex="1">
          <mxGeometry x="160" y="335" width="100" height="30" as="geometry" />
        </mxCell>
        <mxCell id="kWiumYhIm9BWz9SUTFhs-1" value="&lt;font style=&quot;font-size: 9px;&quot;&gt;filterAvailableEnchantments()&lt;/font&gt;" style="text;html=1;align=center;verticalAlign=middle;resizable=0;points=[];autosize=1;strokeColor=none;fillColor=none;" vertex="1" parent="1">
          <mxGeometry x="260" y="305" width="140" height="30" as="geometry" />
        </mxCell>
        <mxCell id="kWiumYhIm9BWz9SUTFhs-4" value="" style="endArrow=classic;html=1;rounded=0;entryX=0.129;entryY=1.1;entryDx=0;entryDy=0;entryPerimeter=0;" edge="1" parent="1">
          <mxGeometry width="50" height="50" relative="1" as="geometry">
            <mxPoint x="150" y="410" as="sourcePoint" />
            <mxPoint x="284.66999999999996" y="410" as="targetPoint" />
          </mxGeometry>
        </mxCell>
        <mxCell id="kWiumYhIm9BWz9SUTFhs-6" value="selectEnchantments()" style="text;html=1;align=center;verticalAlign=middle;resizable=0;points=[];autosize=1;strokeColor=none;fillColor=none;" vertex="1" parent="1">
          <mxGeometry x="140" y="388" width="140" height="30" as="geometry" />
        </mxCell>
        <mxCell id="kWiumYhIm9BWz9SUTFhs-7" value="&lt;font style=&quot;font-size: 7px;&quot;&gt;validateEnchantmentAvailability()&lt;/font&gt;" style="text;html=1;align=center;verticalAlign=middle;resizable=0;points=[];autosize=1;strokeColor=none;fillColor=none;" vertex="1" parent="1">
          <mxGeometry x="295" y="398" width="130" height="30" as="geometry" />
        </mxCell>
        <mxCell id="kWiumYhIm9BWz9SUTFhs-8" value="" style="endArrow=classic;html=1;rounded=0;" edge="1" parent="1">
          <mxGeometry width="50" height="50" relative="1" as="geometry">
            <mxPoint x="435" y="460" as="sourcePoint" />
            <mxPoint x="295" y="460" as="targetPoint" />
            <Array as="points">
              <mxPoint x="320" y="460" />
            </Array>
          </mxGeometry>
        </mxCell>
        <mxCell id="kWiumYhIm9BWz9SUTFhs-9" value="&lt;font style=&quot;font-size: 10px;&quot;&gt;applyEnchantmentEffect()&lt;/font&gt;" style="text;html=1;align=center;verticalAlign=middle;resizable=0;points=[];autosize=1;strokeColor=none;fillColor=none;" vertex="1" parent="1">
          <mxGeometry x="290" y="438" width="140" height="30" as="geometry" />
        </mxCell>
        <mxCell id="kWiumYhIm9BWz9SUTFhs-11" value="" style="endArrow=classic;html=1;rounded=0;" edge="1" parent="1" source="Z0DfydjJGIAEFnmEN4nz-45">
          <mxGeometry width="50" height="50" relative="1" as="geometry">
            <mxPoint x="430" y="490" as="sourcePoint" />
            <mxPoint x="144.99999999999977" y="490" as="targetPoint" />
          </mxGeometry>
        </mxCell>
        <mxCell id="kWiumYhIm9BWz9SUTFhs-12" value="&lt;font style=&quot;font-size: 11px;&quot;&gt;applyEnchantment()&lt;/font&gt;" style="text;html=1;align=center;verticalAlign=middle;resizable=0;points=[];autosize=1;strokeColor=none;fillColor=none;" vertex="1" parent="1">
          <mxGeometry x="170" y="468" width="120" height="30" as="geometry" />
        </mxCell>
        <mxCell id="kWiumYhIm9BWz9SUTFhs-15" value="" style="endArrow=none;dashed=1;html=1;rounded=0;" edge="1" parent="1">
          <mxGeometry width="50" height="50" relative="1" as="geometry">
            <mxPoint y="520" as="sourcePoint" />
            <mxPoint x="760" y="520" as="targetPoint" />
          </mxGeometry>
        </mxCell>
        <mxCell id="kWiumYhIm9BWz9SUTFhs-16" value="&lt;span style=&quot;font-size: 10px;&quot;&gt;[enchantmentFound() == False)]&lt;/span&gt;" style="text;html=1;align=center;verticalAlign=middle;resizable=0;points=[];autosize=1;strokeColor=none;fillColor=none;" vertex="1" parent="1">
          <mxGeometry x="-35" y="498" width="170" height="30" as="geometry" />
        </mxCell>
        <mxCell id="kWiumYhIm9BWz9SUTFhs-17" value="" style="endArrow=none;dashed=1;html=1;rounded=0;" edge="1" parent="1">
          <mxGeometry width="50" height="50" relative="1" as="geometry">
            <mxPoint x="-35" y="610" as="sourcePoint" />
            <mxPoint x="725" y="610" as="targetPoint" />
          </mxGeometry>
        </mxCell>
        <mxCell id="kWiumYhIm9BWz9SUTFhs-18" value="" style="endArrow=classic;html=1;rounded=0;" edge="1" parent="1" target="Z0DfydjJGIAEFnmEN4nz-43">
          <mxGeometry width="50" height="50" relative="1" as="geometry">
            <mxPoint x="150" y="640" as="sourcePoint" />
            <mxPoint x="390" y="590" as="targetPoint" />
          </mxGeometry>
        </mxCell>
        <mxCell id="kWiumYhIm9BWz9SUTFhs-19" value="storeEnchantment()" style="edgeLabel;html=1;align=center;verticalAlign=middle;resizable=0;points=[];" vertex="1" connectable="0" parent="kWiumYhIm9BWz9SUTFhs-18">
          <mxGeometry x="-0.048" y="6" relative="1" as="geometry">
            <mxPoint y="-4" as="offset" />
          </mxGeometry>
        </mxCell>
        <mxCell id="kWiumYhIm9BWz9SUTFhs-21" value="" style="endArrow=classic;html=1;rounded=0;" edge="1" parent="1" source="Z0DfydjJGIAEFnmEN4nz-41">
          <mxGeometry width="50" height="50" relative="1" as="geometry">
            <mxPoint x="150.51999999999998" y="590" as="sourcePoint" />
            <mxPoint x="280" y="590" as="targetPoint" />
          </mxGeometry>
        </mxCell>
        <mxCell id="kWiumYhIm9BWz9SUTFhs-22" value="" style="endArrow=classic;html=1;rounded=0;exitX=0.046;exitY=1.092;exitDx=0;exitDy=0;exitPerimeter=0;" edge="1" parent="1" target="kWiumYhIm9BWz9SUTFhs-20">
          <mxGeometry width="50" height="50" relative="1" as="geometry">
            <mxPoint x="150.51999999999998" y="590" as="sourcePoint" />
            <mxPoint x="280" y="590" as="targetPoint" />
          </mxGeometry>
        </mxCell>
        <mxCell id="kWiumYhIm9BWz9SUTFhs-20" value="&lt;font style=&quot;font-size: 10px;&quot;&gt;selectEnchantments()&lt;/font&gt;" style="text;html=1;align=center;verticalAlign=middle;resizable=0;points=[];autosize=1;strokeColor=none;fillColor=none;" vertex="1" parent="1">
          <mxGeometry x="150" y="580" width="120" height="30" as="geometry" />
        </mxCell>
      </root>
    </mxGraphModel>
  </diagram>
</mxfile>
